<?xml version="1.0" standalone="no"?><!DOCTYPE svg PUBLIC "-//W3C//DTD SVG 1.1//EN" "http://www.w3.org/Graphics/SVG/1.1/DTD/svg11.dtd"><svg t="1566471768953" class="icon" viewBox="0 0 1024 1024" version="1.1" xmlns="http://www.w3.org/2000/svg" p-id="796" xmlns:xlink="http://www.w3.org/1999/xlink" width="200" height="200"><defs><style type="text/css"></style></defs><path d="M302.848897 308.186411c-18.67874 0-38.84109 12.091062-38.84109 31.622698 0 19.609452 20.16235 31.745564 38.84109 31.745565 18.946998 0 31.672869-12.758635 31.672869-31.741469-0.01843-19.213208-12.454541-31.626794-31.672869-31.626794zM495.296335 371.555698c19.005359 0 31.777305-12.758635 31.777305-31.745565 0-19.210136-12.471947-31.622698-31.777305-31.622698-18.62857 0-38.741773 12.091062-38.741773 31.618603 0.022525 19.612523 20.126514 31.74966 38.741773 31.74966z" fill="#30A338" p-id="797"></path><path d="M903.969923 594.310141c0-107.183387-97.655111-198.754571-222.319292-208.468171l-0.690099-0.054266-2.091797-7.80303-0.031741 0.01843c-25.385189-113.782328-148.247332-199.386309-286.672532-199.386309-157.09063 0-284.894044 109.365287-284.894044 243.793239 0 71.907466 36.881373 137.009167 106.666325 188.268962l1.542995 1.134465-25.185531 75.718367c-1.256307 3.825236-0.113651 7.994497 2.894524 10.612572a10.001312 10.001312 0 0 0 6.505767 2.418417 10.14056 10.14056 0 0 0 4.437519-1.043339l93.113156-46.600093 12.572287 2.549474c28.175276 5.789048 52.502792 10.784584 82.347002 10.784585 8.706097 0 17.635401-0.380885 26.55037-1.14368l11.969219-1.650503c34.350329 83.986242 126.465196 140.329627 229.869423 140.329627 26.496104 0 53.015758-6.089046 80.110836-12.871263l0.998288-0.249828 72.052858 39.385797a9.917353 9.917353 0 0 0 4.749804 1.229686 9.870255 9.870255 0 0 0 6.210888-2.191114c3.144352-2.549474 4.419089-6.678804 3.243669-10.525541l-18.683859-62.139601 1.401699-1.111939c60.189099-47.555378 93.332267-104.736302 93.332266-161.004944z m-590.440878 41.700802l-15.765786-3.185307a9.499608 9.499608 0 0 0-1.964836-0.208873 9.514966 9.514966 0 0 0-4.351513 1.061769l-74.833731 37.461916 19.977027-60.020157c1.392484-4.187691-0.104436-8.706097-3.71568-11.243285-70.210888-48.936599-105.808309-108.643448-105.808309-177.465948 0-123.516406 118.925304-224.00256 265.099268-224.00256 128.697266 0 243.552626 78.858624 267.172637 183.423937l0.712624 3.170973-3.248788 0.040955c-132.39042 1.733438-240.095989 95.609388-240.095989 209.266802 0 15.566129 2.277121 31.782424 6.774025 48.20145l0.576448 1.390436-6.792456 1.472347h-0.235493a290.576607 290.576607 0 0 1-24.835363 1.065865c-28.167085 0-51.574128-4.836834-78.664085-10.43032z m474.805318 119.514038l13.701633 45.570064-54.294591-29.703937a9.814965 9.814965 0 0 0-4.736494-1.220471c-0.834467 0-1.623882 0.099317-2.413297 0.317404-26.19713 6.619419-53.292207 13.46614-80.010495 13.46614-123.548147 0-224.056826-85.087942-224.056826-189.670661 0-104.569408 100.508679-189.648135 224.056826-189.648135 121.202425 0 223.599149 86.848001 223.599149 189.648135 0 52.284704-32.788904 105.735614-92.32374 150.489641a9.94807 9.94807 0 0 0-3.522165 10.75182z" fill="#30A338" p-id="798"></path><path d="M735.886861 507.54917c-12.227239 0-24.68178 12.594813-24.68178 24.958229 0 12.313245 12.454541 24.858912 24.68178 24.858912 19.686243 0 31.872526-12.903003 31.872526-24.858912 0-12.005055-12.186283-24.958229-31.872526-24.958229zM584.716336 507.54917c-12.327579 0-24.885533 12.594813-24.885533 24.958229 0 12.313245 12.558977 24.858912 24.885533 24.858912 19.581807 0 31.700514-12.903003 31.700513-24.858912 0-12.005055-12.118707-24.958229-31.700513-24.958229z" fill="#30A338" p-id="799"></path></svg>