<?xml version="1.0" standalone="no"?><!DOCTYPE svg PUBLIC "-//W3C//DTD SVG 1.1//EN" "http://www.w3.org/Graphics/SVG/1.1/DTD/svg11.dtd"><svg t="1566652491262" class="icon" viewBox="0 0 1024 1024" version="1.1" xmlns="http://www.w3.org/2000/svg" p-id="1714" xmlns:xlink="http://www.w3.org/1999/xlink" width="200" height="200"><defs><style type="text/css"></style></defs><path d="M814.060 781.227q-67.241-67.241-269.773-269.773 67.241-67.241 269.773-269.773 5.671-6.481 5.671-12.962 0 0-0.81-0.81 0-6.481-4.861-9.722-4.861-4.051-11.342-4.861-0.81 0-0.81 0-5.671 0-11.342 4.861-89.924 89.924-269.773 269.773-67.241-67.241-269.773-269.773-4.861-4.861-12.962-4.861-7.291 0.81-10.532 4.861-5.671 5.671-5.671 11.342 0 6.481 5.671 12.152 89.924 89.924 269.773 269.773-67.241 67.241-269.773 269.773-11.342 11.342 0 23.494 12.152 11.342 23.494 0 89.924-89.924 269.773-269.773 67.241 67.241 269.773 269.773 5.671 5.671 11.342 5.671 5.671 0 12.152-5.671 4.861-5.671 4.861-12.962 0-6.481-4.861-10.532z" p-id="1715"></path></svg>