<?xml version="1.0" standalone="no"?><!DOCTYPE svg PUBLIC "-//W3C//DTD SVG 1.1//EN" "http://www.w3.org/Graphics/SVG/1.1/DTD/svg11.dtd"><svg t="1566800825594" class="icon" viewBox="0 0 1390 1024" version="1.1" xmlns="http://www.w3.org/2000/svg" p-id="13542" xmlns:xlink="http://www.w3.org/1999/xlink" width="271.484375" height="200"><defs><style type="text/css"></style></defs><path d="M1279.461328 1023.998758h-73.995772a7.040297 7.040297 0 1 1 0-14.080594h73.995772a7.040297 7.040297 0 1 1 0 14.080594zM1151.650562 1023.998758H167.345221a7.040297 7.040297 0 1 1 0-14.080594h984.305341a7.040297 7.040297 0 1 1 0 14.080594zM135.263372 1023.998758H111.45999a7.040297 7.040297 0 1 1 0-14.080594h23.803382a7.040297 7.040297 0 1 1 0 14.080594z" fill="#7ECAFC" p-id="13543"></path><path d="M137.455315 524.92377c-0.699186-7.821449-7.606601-13.593772-15.426807-12.894585a14.624544 14.624544 0 0 0-9.558859 5.065685 13.660834 13.660834 0 0 0-3.179248 10.316414 14.607158 14.607158 0 0 0 5.138957 9.558858 13.088321 13.088321 0 0 0 9.003732 3.381678h1.125156c7.821449-0.700428 13.595014-7.606601 12.897069-15.42805z m-8.663452 11.405555a11.532228 11.532228 0 0 1-12.757978-1.398373 10.559825 10.559825 0 0 1-4.051058-7.801578 11.538437 11.538437 0 0 1 2.591833-8.488346 10.580937 10.580937 0 0 1 7.821448-4.053542h1.033256a11.447779 11.447779 0 0 1 11.508632 10.475376 11.52726 11.52726 0 0 1-6.146133 11.266463zM1261.965525 168.172322c-0.968677-10.820623-10.526294-18.809727-21.345674-17.841049a20.22797 20.22797 0 0 0-13.22493 7.008008 18.904111 18.904111 0 0 0-4.401272 14.27433 20.215551 20.215551 0 0 0 7.113569 13.224929 18.114266 18.114266 0 0 0 12.457439 4.679457h1.558577c10.819381-0.966194 18.807243-10.52381 17.842291-21.345675z m-11.986761 15.78199a15.955855 15.955855 0 0 1-17.652282-1.934871 14.614609 14.614609 0 0 1-5.608393-10.794543 15.96579 15.96579 0 0 1 3.587832-11.745834 14.641931 14.641931 0 0 1 10.823106-5.608393h1.42942c8.279708-0.073272 15.221895 6.241759 15.922324 14.494145a15.945919 15.945919 0 0 1-8.502007 15.589496zM197.685934 108.613568a3.055059 3.055059 0 0 1-3.053817-3.055059V85.803701l-13.95268 13.952679a3.132057 3.132057 0 0 1-4.428594-4.427352l13.955163-13.95268h-19.790823a3.06872 3.06872 0 1 1 0-6.138682h19.790823L176.249601 61.451401a2.912242 2.912242 0 0 1 0-4.427353 2.918451 2.918451 0 0 1 4.428594 0l13.95268 13.818555V51.085311a3.051334 3.051334 0 1 1 5.971026 0v19.757292l14.088046-13.953921a2.920935 2.920935 0 0 1 4.428594 0 2.915967 2.915967 0 0 1 0 4.427352L205.163378 75.271197h19.75605a3.067478 3.067478 0 1 1 0 6.136199h-19.75605l13.955163 13.956405c0.791086 0.787361 1.097834 1.94108 0.809715 3.021528a3.139508 3.139508 0 0 1-2.214297 2.215539 3.134541 3.134541 0 0 1-3.025254-0.81344L200.60066 85.802459v19.75605c0.335311 1.71133-1.373535 3.053817-3.051334 3.053818h0.136608zM178.329774 912.771003h-8.443638v-8.44488a2.539673 2.539673 0 1 0-5.08183 0v8.44488h-8.443638a2.539673 2.539673 0 1 0 0 5.08183h8.443638v8.443638a2.528496 2.528496 0 0 0 2.527254 2.526012l0.02608-0.109287a2.524771 2.524771 0 0 0 2.528496-2.528496v-8.330625h8.443638a2.542157 2.542157 0 0 0 0-5.083072zM1242.465305 762.027421c0 16.738248-11.333525 29.903566-25.352025 29.903567 14.05824 0 25.352025 13.391343 25.352025 29.904808 0-16.740732 11.336009-29.904808 25.349541-29.904808-14.05824 0-25.349541-13.387618-25.349541-29.903567z m0 0" fill="#CCCCCC" p-id="13544"></path><path d="M988.198679 129.231493H402.550016C319.268602 129.231493 252.104489 196.395606 252.104489 279.675778v586.993634c0 81.935201 67.164113 149.094346 150.445527 149.094347h586.992392c81.936443 0 149.095588-67.159146 149.095588-150.443044V279.675778c-0.001242-83.280172-67.160387-150.444285-150.439317-150.444285z" fill="#DFEFF7" p-id="13545"></path><path d="M326.618131 866.669412v-586.993634c0-83.280172 67.164113-150.444285 150.445527-150.444285h-74.513642C319.268602 129.231493 252.104489 196.395606 252.104489 279.675778v586.993634c0 81.935201 67.164113 149.094346 150.445527 149.094347h74.513642c-83.281414 0-150.445527-67.159146-150.445527-149.094347z" fill="#C7E6F9" p-id="13546"></path><path d="M989.542408 1022.804056H402.550016c-86.838198 0-157.485824-70.04034-157.485824-156.134644v-586.993634c0-42.158577 16.355744-81.732772 46.054398-111.431426s69.272849-46.054398 111.431426-46.054398h585.648663c42.157335 0 81.73153 16.355744 111.428942 46.054398 29.69617 29.698654 46.050673 69.271607 46.050673 111.431426v326.867752a7.040297 7.040297 0 1 1-14.080595 0V279.675778c0-79.072635-64.328869-143.403988-143.39902-143.403988H402.550016c-79.073877 0-143.403988 64.330111-143.403988 143.403988v586.993634c0 78.327499 64.330111 142.054049 143.403988 142.054049h586.992392c78.328741 0 142.055291-64.330111 142.055291-143.402746v-51.587036a7.040297 7.040297 0 1 1 14.080595 0v51.587036c-0.001242 86.836957-70.042824 157.483341-156.135886 157.483341z" fill="#7ECAFC" p-id="13547"></path><path d="M1138.636754 709.003513a7.040297 7.040297 0 0 1-7.040297-7.040297v-58.989966a7.040297 7.040297 0 1 1 14.080595 0v58.989966a7.040297 7.040297 0 0 1-7.040298 7.040297z" fill="#7ECAFC" p-id="13548"></path><path d="M378.488319 403.646608h648.174302v5.799646H378.488319z" fill="#B1DDFC" p-id="13549"></path><path d="M387.238704 337.703277H404.733266c4.812339 0 8.749143 3.935562 8.749143 8.749144 0 4.812339-3.936804 8.745418-8.749143 8.745417h-17.494562c-4.813581 0-8.750385-3.93432-8.750385-8.745417 0-4.813581 3.936804-8.749143 8.750385-8.749144zM440.958073 337.703277h17.498287c4.811097 0 8.747902 3.935562 8.747901 8.749144 0 4.812339-3.938046 8.745418-8.747901 8.745417h-17.498287c-4.811097 0-8.74666-3.93432-8.74666-8.745417-0.001242-4.813581 3.935562-8.749143 8.74666-8.749144zM494.681167 337.703277h17.498287c4.811097 0 8.747902 3.935562 8.747901 8.749144 0 4.812339-3.938046 8.745418-8.747901 8.745417h-17.498287c-4.811097 0-8.74666-3.93432-8.74666-8.745417-0.001242-4.813581 3.935562-8.749143 8.74666-8.749144z" fill="#B1DDFC" p-id="13550"></path><path d="M581.777679 564.115462v41.523969l-149.047154 63.196262 149.047154 63.201229v41.519001l-203.28936-87.801908v-33.839128l203.28936-87.799425z m148.754068-32.157604h39.435103l-117.309311 281.021992h-39.847412l117.72162-281.021992z m92.841514 32.157604l203.290602 87.796941v33.839128l-203.290602 87.801909V732.034438l149.045912-63.201229-149.045912-63.196262v-41.521485z m0 0" fill="#209AFD" p-id="13551"></path></svg>