<?xml version="1.0" standalone="no"?><!DOCTYPE svg PUBLIC "-//W3C//DTD SVG 1.1//EN" "http://www.w3.org/Graphics/SVG/1.1/DTD/svg11.dtd"><svg t="1566474748440" class="icon" viewBox="0 0 1024 1024" version="1.1" xmlns="http://www.w3.org/2000/svg" p-id="915" xmlns:xlink="http://www.w3.org/1999/xlink" width="200" height="200"><defs><style type="text/css"></style></defs><path d="M512 512m-448 0a448 448 0 1 0 896 0 448 448 0 1 0-896 0Z" fill="#F6FCF6" p-id="916"></path><path d="M340 352c-28.7 0-52 23.3-52 52v216c0 28.7 23.3 52 52 52h344c28.7 0 52-23.3 52-52V404c0-28.7-23.3-52-52-52H340z m0-32h344c46.4 0 84 37.6 84 84v216c0 46.4-37.6 84-84 84H340c-46.4 0-84-37.6-84-84V404c0-46.4 37.6-84 84-84z m-20.9 82.3c-5.7-3.4-7.5-10.8-4-16.5 3.4-5.7 10.8-7.5 16.5-4l110.3 66.9c31.5 21.3 50.6 29.6 68.6 29.7 18.3 0.1 38.1-8.3 69.3-29.4 0.1-0.1 37.7-22.5 112.7-67.2 5.7-3.4 13.1-1.5 16.5 4.2 3.4 5.7 1.5 13.1-4.2 16.5L593 469c-66 44.5-98.1 44.3-163.8 0l-110.1-66.7z m239.7 131.1l1.7-1c7.7-4.5 17.3-4.5 25 0l1.7 1c6.7 3.9 10.8 11.1 10.8 18.9 0 3.8-3 6.8-6.8 6.8-1.3 0-2.6-0.4-3.7-1.1l-2-1.3c-7.6-5-17.4-5-25 0l-2 1.3c-3.1 2.1-7.4 1.2-9.4-2-0.7-1.1-1.1-2.4-1.1-3.7 0-7.8 4.1-15 10.8-18.9z m-121 0l1.7-1c7.7-4.5 17.3-4.5 25 0l1.7 1c6.7 3.9 10.8 11.1 10.8 18.9 0 3.8-3 6.8-6.8 6.8-1.3 0-2.6-0.4-3.7-1.1l-2-1.3c-7.6-5-17.4-5-25 0l-2 1.3c-3.1 2.1-7.4 1.2-9.4-2-0.7-1.1-1.1-2.4-1.1-3.7 0-7.8 4.1-15 10.8-18.9z m90.2 46.3c0-6.6 5.4-12 12-12s12 5.4 12 12c0 21.8-18 39.3-40 39.3s-40-17.5-40-39.3c0-6.6 5.4-12 12-12s12 5.4 12 12c0 8.4 7.1 15.3 16 15.3s16-6.9 16-15.3z" fill="#86D887" p-id="917"></path><path d="M403 593c-11.6 0-21-5.1-21-11.5s9.4-11.5 21-11.5 21 5.1 21 11.5-9.4 11.5-21 11.5z m218 0c-11.6 0-21-5.1-21-11.5s9.4-11.5 21-11.5 21 5.1 21 11.5-9.4 11.5-21 11.5z" fill="#ACE4AD" p-id="918"></path></svg>