<?xml version="1.0" standalone="no"?><!DOCTYPE svg PUBLIC "-//W3C//DTD SVG 1.1//EN" "http://www.w3.org/Graphics/SVG/1.1/DTD/svg11.dtd"><svg t="1566474791537" class="icon" viewBox="0 0 1024 1024" version="1.1" xmlns="http://www.w3.org/2000/svg" p-id="1028" xmlns:xlink="http://www.w3.org/1999/xlink" width="200" height="200"><defs><style type="text/css"></style></defs><path d="M844.8 793.6c0-38.4-32-64-64-64h-512c-12.8 0-32-12.8-32-32s12.8-25.6 32-25.6h89.6c6.4 0 19.2-12.8 19.2-19.2 0-6.4-6.4-19.2-19.2-19.2H268.8c-38.4 0-64 32-64 64 0 38.4 32 64 64 64H774.4c12.8 0 32 6.4 32 25.6 0 25.6-19.2 32-32 32h-448c-6.4 0-19.2 6.4-19.2 19.2s6.4 19.2 19.2 19.2h448c19.2 0 38.4-6.4 51.2-19.2 19.2-19.2 25.6-32 19.2-44.8z" fill="#4E8CEE" p-id="1029"></path><path d="M697.6 352c0 96-172.8 300.8-172.8 300.8S352 448 352 352s76.8-172.8 172.8-172.8 172.8 76.8 172.8 172.8z" fill="#BAD4FF" p-id="1030"></path><path d="M524.8 160c-102.4 0-192 83.2-192 192 0 83.2 108.8 230.4 172.8 307.2l6.4 6.4 12.8 19.2 12.8-19.2s6.4-6.4 6.4-12.8c115.2-140.8 166.4-243.2 166.4-300.8 6.4-102.4-76.8-192-185.6-192z m0 32c89.6 0 160 70.4 160 160 0 64-89.6 185.6-140.8 249.6-6.4 12.8-12.8 19.2-19.2 25.6l-19.2-19.2c-51.2-64-140.8-185.6-140.8-249.6C364.8 268.8 435.2 192 524.8 192z" fill="#4E8CEE" p-id="1031"></path><path d="M435.2 358.4c0 44.8 38.4 89.6 89.6 89.6s89.6-38.4 89.6-89.6c0-51.2-38.4-89.6-89.6-89.6s-89.6 38.4-89.6 89.6z" fill="#FFFFFF" p-id="1032"></path><path d="M524.8 256c-57.6 0-102.4 44.8-102.4 102.4s44.8 102.4 102.4 102.4c57.6 0 102.4-44.8 102.4-102.4 0-57.6-44.8-102.4-102.4-102.4z m70.4 102.4c0 38.4-32 70.4-70.4 70.4-38.4 0-70.4-32-70.4-70.4s32-70.4 70.4-70.4c38.4 0 70.4 32 70.4 70.4z" fill="#4E8CEE" p-id="1033"></path></svg>